<mxfile host="app.diagrams.net" modified="2023-05-24T13:00:16.323Z" agent="Mozilla/5.0 (Windows NT 10.0; Win64; x64) AppleWebKit/537.36 (KHTML, like Gecko) Chrome/113.0.0.0 Safari/537.36" etag="5YgFwuztqtIhyeSd9dU8" version="21.3.3" type="github">
  <diagram name="第 1 页" id="aZTdt6RVge2hL6jVaboq">
    <mxGraphModel dx="726" dy="493" grid="1" gridSize="10" guides="1" tooltips="1" connect="1" arrows="1" fold="1" page="1" pageScale="1" pageWidth="827" pageHeight="1169" math="0" shadow="0">
      <root>
        <mxCell id="0" />
        <mxCell id="1" parent="0" />
        <mxCell id="9Db_Xip3CgxKZhfaD_9G-1" value="orderer1" style="rounded=1;whiteSpace=wrap;html=1;strokeWidth=1;fontSize=13;fontStyle=1" parent="1" vertex="1">
          <mxGeometry x="150" y="120" width="70" height="40" as="geometry" />
        </mxCell>
        <mxCell id="9Db_Xip3CgxKZhfaD_9G-2" value="orderer0" style="rounded=1;whiteSpace=wrap;html=1;strokeWidth=1;fontSize=13;fontStyle=1" parent="1" vertex="1">
          <mxGeometry x="240" y="180" width="70" height="40" as="geometry" />
        </mxCell>
        <mxCell id="9Db_Xip3CgxKZhfaD_9G-3" value="orderer2" style="rounded=1;whiteSpace=wrap;html=1;strokeWidth=1;fontSize=13;fontStyle=1" parent="1" vertex="1">
          <mxGeometry x="310" y="120" width="70" height="40" as="geometry" />
        </mxCell>
        <mxCell id="9Db_Xip3CgxKZhfaD_9G-5" value="" style="rounded=0;whiteSpace=wrap;html=1;dashed=1;dashPattern=12 12;strokeWidth=1;fontSize=13;fontStyle=1" parent="1" vertex="1">
          <mxGeometry x="120" y="270" width="120" height="150" as="geometry" />
        </mxCell>
        <mxCell id="9Db_Xip3CgxKZhfaD_9G-6" value="peer0.org1" style="ellipse;whiteSpace=wrap;html=1;strokeWidth=1;fontSize=13;fontStyle=1" parent="1" vertex="1">
          <mxGeometry x="140" y="290" width="80" height="40" as="geometry" />
        </mxCell>
        <mxCell id="9Db_Xip3CgxKZhfaD_9G-7" value="peer1.org1" style="ellipse;whiteSpace=wrap;html=1;strokeWidth=1;fontSize=13;fontStyle=1" parent="1" vertex="1">
          <mxGeometry x="140" y="360" width="80" height="40" as="geometry" />
        </mxCell>
        <mxCell id="9Db_Xip3CgxKZhfaD_9G-8" value="Org1" style="text;strokeColor=none;align=center;fillColor=none;html=1;verticalAlign=middle;whiteSpace=wrap;rounded=0;strokeWidth=1;fontSize=13;fontStyle=1" parent="1" vertex="1">
          <mxGeometry x="140" y="240" width="60" height="30" as="geometry" />
        </mxCell>
        <mxCell id="9Db_Xip3CgxKZhfaD_9G-9" value="" style="rounded=0;whiteSpace=wrap;html=1;dashed=1;dashPattern=12 12;strokeWidth=1;fontSize=13;fontStyle=1" parent="1" vertex="1">
          <mxGeometry x="354" y="270" width="116" height="150" as="geometry" />
        </mxCell>
        <mxCell id="9Db_Xip3CgxKZhfaD_9G-10" value="peer0.org2" style="ellipse;whiteSpace=wrap;html=1;strokeWidth=1;fontSize=13;fontStyle=1" parent="1" vertex="1">
          <mxGeometry x="374" y="290" width="80" height="40" as="geometry" />
        </mxCell>
        <mxCell id="9Db_Xip3CgxKZhfaD_9G-11" value="peer1.org2" style="ellipse;whiteSpace=wrap;html=1;strokeWidth=1;fontSize=13;fontStyle=1" parent="1" vertex="1">
          <mxGeometry x="374" y="360" width="80" height="40" as="geometry" />
        </mxCell>
        <mxCell id="9Db_Xip3CgxKZhfaD_9G-12" value="Org2" style="text;strokeColor=none;align=center;fillColor=none;html=1;verticalAlign=middle;whiteSpace=wrap;rounded=0;strokeWidth=1;fontSize=13;fontStyle=1" parent="1" vertex="1">
          <mxGeometry x="374" y="240" width="60" height="30" as="geometry" />
        </mxCell>
        <mxCell id="9Db_Xip3CgxKZhfaD_9G-25" style="rounded=0;orthogonalLoop=1;jettySize=auto;html=1;exitX=0.5;exitY=0;exitDx=0;exitDy=0;entryX=0.5;entryY=1;entryDx=0;entryDy=0;dashed=1;strokeWidth=1;fontSize=13;fontStyle=1" parent="1" source="9Db_Xip3CgxKZhfaD_9G-13" target="9Db_Xip3CgxKZhfaD_9G-2" edge="1">
          <mxGeometry relative="1" as="geometry" />
        </mxCell>
        <mxCell id="9Db_Xip3CgxKZhfaD_9G-26" style="rounded=0;orthogonalLoop=1;jettySize=auto;html=1;exitX=0.25;exitY=0;exitDx=0;exitDy=0;entryX=0.5;entryY=1;entryDx=0;entryDy=0;dashed=1;strokeWidth=1;fontSize=13;fontStyle=1" parent="1" source="9Db_Xip3CgxKZhfaD_9G-13" target="9Db_Xip3CgxKZhfaD_9G-5" edge="1">
          <mxGeometry relative="1" as="geometry" />
        </mxCell>
        <mxCell id="9Db_Xip3CgxKZhfaD_9G-27" style="rounded=0;orthogonalLoop=1;jettySize=auto;html=1;exitX=0.75;exitY=0;exitDx=0;exitDy=0;entryX=0.5;entryY=1;entryDx=0;entryDy=0;dashed=1;strokeWidth=1;fontSize=13;fontStyle=1" parent="1" source="9Db_Xip3CgxKZhfaD_9G-13" target="9Db_Xip3CgxKZhfaD_9G-9" edge="1">
          <mxGeometry relative="1" as="geometry" />
        </mxCell>
        <mxCell id="9Db_Xip3CgxKZhfaD_9G-13" value="客户端" style="rounded=1;whiteSpace=wrap;html=1;strokeWidth=1;fontSize=13;fontStyle=1" parent="1" vertex="1">
          <mxGeometry x="240" y="480" width="80" height="40" as="geometry" />
        </mxCell>
        <mxCell id="9Db_Xip3CgxKZhfaD_9G-15" value="" style="endArrow=classic;startArrow=classic;html=1;rounded=0;entryX=0;entryY=0;entryDx=0;entryDy=0;exitX=1;exitY=0;exitDx=0;exitDy=0;dashed=1;strokeWidth=1;fontSize=13;fontStyle=1" parent="1" source="9Db_Xip3CgxKZhfaD_9G-6" target="9Db_Xip3CgxKZhfaD_9G-10" edge="1">
          <mxGeometry width="50" height="50" relative="1" as="geometry">
            <mxPoint x="260" y="350" as="sourcePoint" />
            <mxPoint x="310" y="300" as="targetPoint" />
          </mxGeometry>
        </mxCell>
        <mxCell id="9Db_Xip3CgxKZhfaD_9G-16" value="" style="endArrow=classic;startArrow=classic;html=1;rounded=0;entryX=0;entryY=0.5;entryDx=0;entryDy=0;exitX=1;exitY=0;exitDx=0;exitDy=0;dashed=1;strokeWidth=1;fontSize=13;fontStyle=1" parent="1" source="9Db_Xip3CgxKZhfaD_9G-7" target="9Db_Xip3CgxKZhfaD_9G-10" edge="1">
          <mxGeometry width="50" height="50" relative="1" as="geometry">
            <mxPoint x="380" y="470" as="sourcePoint" />
            <mxPoint x="558" y="470" as="targetPoint" />
          </mxGeometry>
        </mxCell>
        <mxCell id="9Db_Xip3CgxKZhfaD_9G-17" value="" style="endArrow=classic;startArrow=classic;html=1;rounded=0;entryX=0;entryY=0.5;entryDx=0;entryDy=0;dashed=1;exitX=1;exitY=0.5;exitDx=0;exitDy=0;strokeWidth=1;fontSize=13;fontStyle=1" parent="1" source="9Db_Xip3CgxKZhfaD_9G-7" target="9Db_Xip3CgxKZhfaD_9G-11" edge="1">
          <mxGeometry width="50" height="50" relative="1" as="geometry">
            <mxPoint x="300" y="450" as="sourcePoint" />
            <mxPoint x="588" y="520" as="targetPoint" />
          </mxGeometry>
        </mxCell>
        <mxCell id="9Db_Xip3CgxKZhfaD_9G-18" value="" style="endArrow=classic;startArrow=classic;html=1;rounded=0;entryX=0;entryY=0;entryDx=0;entryDy=0;exitX=1;exitY=0.5;exitDx=0;exitDy=0;dashed=1;strokeWidth=1;fontSize=13;fontStyle=1" parent="1" source="9Db_Xip3CgxKZhfaD_9G-6" target="9Db_Xip3CgxKZhfaD_9G-11" edge="1">
          <mxGeometry width="50" height="50" relative="1" as="geometry">
            <mxPoint x="420" y="530" as="sourcePoint" />
            <mxPoint x="598" y="530" as="targetPoint" />
          </mxGeometry>
        </mxCell>
        <mxCell id="9Db_Xip3CgxKZhfaD_9G-19" value="" style="endArrow=classic;startArrow=classic;html=1;rounded=0;dashed=1;exitX=0.5;exitY=1;exitDx=0;exitDy=0;entryX=0.25;entryY=0;entryDx=0;entryDy=0;strokeWidth=1;fontSize=13;fontStyle=1" parent="1" source="9Db_Xip3CgxKZhfaD_9G-1" target="9Db_Xip3CgxKZhfaD_9G-2" edge="1">
          <mxGeometry width="50" height="50" relative="1" as="geometry">
            <mxPoint x="430" y="540" as="sourcePoint" />
            <mxPoint x="610" y="550" as="targetPoint" />
          </mxGeometry>
        </mxCell>
        <mxCell id="9Db_Xip3CgxKZhfaD_9G-20" value="" style="endArrow=classic;startArrow=classic;html=1;rounded=0;entryX=0.5;entryY=1;entryDx=0;entryDy=0;exitX=0.75;exitY=0;exitDx=0;exitDy=0;dashed=1;strokeWidth=1;fontSize=13;fontStyle=1" parent="1" source="9Db_Xip3CgxKZhfaD_9G-2" target="9Db_Xip3CgxKZhfaD_9G-3" edge="1">
          <mxGeometry width="50" height="50" relative="1" as="geometry">
            <mxPoint x="440" y="520" as="sourcePoint" />
            <mxPoint x="618" y="520" as="targetPoint" />
          </mxGeometry>
        </mxCell>
        <mxCell id="9Db_Xip3CgxKZhfaD_9G-21" value="" style="endArrow=classic;startArrow=classic;html=1;rounded=0;entryX=0;entryY=0.5;entryDx=0;entryDy=0;dashed=1;exitX=1;exitY=0.5;exitDx=0;exitDy=0;strokeWidth=1;fontSize=13;fontStyle=1" parent="1" source="9Db_Xip3CgxKZhfaD_9G-1" target="9Db_Xip3CgxKZhfaD_9G-3" edge="1">
          <mxGeometry width="50" height="50" relative="1" as="geometry">
            <mxPoint x="210" y="140" as="sourcePoint" />
            <mxPoint x="628" y="560" as="targetPoint" />
          </mxGeometry>
        </mxCell>
        <mxCell id="9Db_Xip3CgxKZhfaD_9G-29" value="" style="endArrow=none;html=1;rounded=0;strokeWidth=1;fontSize=13;fontStyle=1" parent="1" edge="1">
          <mxGeometry width="50" height="50" relative="1" as="geometry">
            <mxPoint x="90" y="450" as="sourcePoint" />
            <mxPoint x="480" y="450" as="targetPoint" />
          </mxGeometry>
        </mxCell>
        <mxCell id="9Db_Xip3CgxKZhfaD_9G-30" value="" style="endArrow=none;html=1;rounded=0;strokeWidth=1;fontSize=13;fontStyle=1" parent="1" edge="1">
          <mxGeometry width="50" height="50" relative="1" as="geometry">
            <mxPoint x="90" y="239" as="sourcePoint" />
            <mxPoint x="480" y="239" as="targetPoint" />
          </mxGeometry>
        </mxCell>
        <mxCell id="9Db_Xip3CgxKZhfaD_9G-31" value="" style="endArrow=classic;startArrow=classic;html=1;rounded=0;entryX=0.25;entryY=1;entryDx=0;entryDy=0;exitX=0.5;exitY=0;exitDx=0;exitDy=0;strokeWidth=1;fontSize=13;fontStyle=1" parent="1" source="9Db_Xip3CgxKZhfaD_9G-6" target="9Db_Xip3CgxKZhfaD_9G-2" edge="1">
          <mxGeometry width="50" height="50" relative="1" as="geometry">
            <mxPoint x="90" y="540" as="sourcePoint" />
            <mxPoint x="140" y="490" as="targetPoint" />
          </mxGeometry>
        </mxCell>
        <mxCell id="9Db_Xip3CgxKZhfaD_9G-32" value="" style="endArrow=classic;startArrow=classic;html=1;rounded=0;entryX=0.75;entryY=1;entryDx=0;entryDy=0;exitX=0.5;exitY=0;exitDx=0;exitDy=0;strokeWidth=1;fontSize=13;fontStyle=1" parent="1" source="9Db_Xip3CgxKZhfaD_9G-10" target="9Db_Xip3CgxKZhfaD_9G-2" edge="1">
          <mxGeometry width="50" height="50" relative="1" as="geometry">
            <mxPoint x="380" y="230" as="sourcePoint" />
            <mxPoint x="430" y="180" as="targetPoint" />
          </mxGeometry>
        </mxCell>
        <mxCell id="9Db_Xip3CgxKZhfaD_9G-33" value="" style="endArrow=classic;startArrow=classic;html=1;rounded=0;entryX=0.5;entryY=1;entryDx=0;entryDy=0;strokeWidth=1;fontSize=13;fontStyle=1" parent="1" source="9Db_Xip3CgxKZhfaD_9G-7" target="9Db_Xip3CgxKZhfaD_9G-6" edge="1">
          <mxGeometry width="50" height="50" relative="1" as="geometry">
            <mxPoint x="10" y="510" as="sourcePoint" />
            <mxPoint x="60" y="460" as="targetPoint" />
          </mxGeometry>
        </mxCell>
        <mxCell id="9Db_Xip3CgxKZhfaD_9G-34" value="" style="endArrow=classic;startArrow=classic;html=1;rounded=0;entryX=0.5;entryY=1;entryDx=0;entryDy=0;exitX=0.5;exitY=0;exitDx=0;exitDy=0;strokeWidth=1;fontSize=13;fontStyle=1" parent="1" source="9Db_Xip3CgxKZhfaD_9G-11" target="9Db_Xip3CgxKZhfaD_9G-10" edge="1">
          <mxGeometry width="50" height="50" relative="1" as="geometry">
            <mxPoint x="90" y="530" as="sourcePoint" />
            <mxPoint x="140" y="480" as="targetPoint" />
          </mxGeometry>
        </mxCell>
      </root>
    </mxGraphModel>
  </diagram>
</mxfile>
